<svg width="37" height="36" viewBox="0 0 37 36" fill="none" xmlns="http://www.w3.org/2000/svg">
<path d="M16.6273 1.23892C17.6688 0.497357 19.0659 0.497358 20.1074 1.23892L34.031 11.1527C35.1037 11.9165 35.5529 13.2906 35.1385 14.5406L29.845 30.5064C29.4381 31.7338 28.2905 32.5623 26.9975 32.5623H9.73723C8.44417 32.5623 7.29659 31.7338 6.88966 30.5064L1.59619 14.5406C1.18175 13.2906 1.63096 11.9165 2.70373 11.1527L16.6273 1.23892Z" fill="black"/>
<path d="M19.8174 1.64623L33.741 11.56C34.6349 12.1965 35.0093 13.3416 34.6639 14.3833L29.3704 30.3491C29.0313 31.3719 28.075 32.0623 26.9975 32.0623H9.73723C8.65968 32.0623 7.70337 31.3719 7.36426 30.3491L2.07078 14.3833C1.72542 13.3416 2.09976 12.1965 2.99373 11.56L16.9173 1.64623C17.7852 1.02826 18.9495 1.02826 19.8174 1.64623Z" stroke="#454545" stroke-opacity="0.95"/>
<path d="M34.6939 5.99408C34.6939 6.67733 34.5275 7.18245 34.1946 7.50945C33.8617 7.83645 33.3492 7.99995 32.6568 7.99995C31.9623 7.99995 31.4472 7.83645 31.1116 7.50945C30.7759 7.18245 30.6095 6.67733 30.6123 5.99408C30.6123 5.31866 30.7787 4.81745 31.1116 4.49045C31.4444 4.16345 31.9595 3.99995 32.6568 3.99995C33.3436 3.99995 33.8545 4.16345 34.1896 4.49045C34.5247 4.81745 34.6928 5.31866 34.6939 5.99408ZM34.4625 5.99408C34.4625 5.39127 34.3141 4.94282 34.0174 4.64873C33.7206 4.35464 33.2671 4.20759 32.6568 4.20759C32.0394 4.20759 31.5823 4.35464 31.2855 4.64873C30.9887 4.94282 30.84 5.39127 30.8394 5.99408C30.8394 6.6042 30.9881 7.05656 31.2855 7.35118C31.5828 7.64579 32.0399 7.79283 32.6568 7.79231C33.2671 7.79231 33.7203 7.64527 34.0165 7.35118C34.3128 7.05709 34.4614 6.60472 34.4625 5.99408ZM32.1134 6.26675V7.08399H31.8821V4.88458H32.6568C32.9808 4.88458 33.2121 4.93681 33.3508 5.04129C33.4895 5.14576 33.5588 5.3184 33.5588 5.55921C33.5689 5.72375 33.5203 5.88675 33.4207 6.02228C33.3117 6.14363 33.1592 6.22309 32.9922 6.24559L33.6171 7.08477H33.3275L32.74 6.26675H32.1134ZM33.3283 5.56156C33.3338 5.49464 33.322 5.42746 33.2939 5.36578C33.2658 5.30409 33.2222 5.24975 33.1669 5.2074C33.056 5.13113 32.8862 5.093 32.6577 5.093H32.1134V6.08497H32.6568C32.8882 6.08497 33.0579 6.04266 33.1661 5.9596C33.2743 5.87654 33.3283 5.74021 33.3283 5.55843V5.56156Z" fill="white"/>
<path d="M15.6076 15.7124C15.6289 15.1797 15.4734 14.7685 15.141 14.4787C14.8129 14.1889 14.3164 14.044 13.6516 14.044C13.1999 14.044 12.8079 14.108 12.4755 14.2358C12.1431 14.3594 11.8768 14.532 11.6765 14.7536C11.4805 14.9709 11.359 15.2223 11.3121 15.5078C11.2653 15.7422 11.2802 15.9467 11.3569 16.1214C11.4379 16.2962 11.5636 16.4474 11.734 16.5753C11.9087 16.6989 12.1154 16.8075 12.354 16.9013C12.5927 16.9908 12.8462 17.0675 13.1147 17.1314L14.2397 17.4126C14.7894 17.5405 15.2837 17.7109 15.7227 17.924C16.1658 18.1371 16.5366 18.3991 16.8349 18.7102C17.1374 19.0213 17.3505 19.3878 17.4741 19.8097C17.5977 20.2315 17.6147 20.7152 17.5252 21.2607C17.3888 22.0618 17.0714 22.7564 16.5728 23.3445C16.0742 23.9283 15.4201 24.3821 14.6104 24.706C13.8008 25.0256 12.8633 25.1854 11.7979 25.1854C10.7411 25.1854 9.84837 25.0234 9.11967 24.6996C8.39098 24.3757 7.86044 23.8963 7.52805 23.2614C7.19993 22.6222 7.10192 21.8317 7.23402 20.8899H9.91229C9.86541 21.3288 9.92933 21.6953 10.104 21.9893C10.283 22.2791 10.5494 22.4986 10.9031 22.6477C11.2567 22.7926 11.6722 22.8651 12.1495 22.8651C12.6225 22.8651 13.0423 22.7969 13.4087 22.6605C13.7795 22.5241 14.0799 22.3345 14.31 22.0916C14.5401 21.8487 14.6808 21.5696 14.7319 21.2543C14.783 20.9602 14.7383 20.7131 14.5977 20.5128C14.457 20.3125 14.2312 20.142 13.9201 20.0014C13.6133 19.8565 13.2319 19.7287 12.7759 19.6179L11.408 19.2599C10.3512 18.9915 9.5522 18.5717 9.01101 18.0007C8.46982 17.4297 8.27592 16.6605 8.42933 15.6932C8.5657 14.9006 8.89595 14.2081 9.4201 13.6158C9.94851 13.0192 10.6133 12.5568 11.4144 12.2287C12.2198 11.8963 13.0998 11.7301 14.0543 11.7301C15.0259 11.7301 15.8462 11.8984 16.5153 12.2351C17.1843 12.5675 17.6722 13.032 17.979 13.6286C18.2859 14.2251 18.3796 14.9197 18.2603 15.7124H15.6076ZM18.7669 25L20.9402 11.9091H26.1816C27.1447 11.9091 27.9245 12.0518 28.5211 12.3374C29.122 12.6229 29.5417 13.0192 29.7804 13.5263C30.019 14.0291 30.0829 14.6087 29.9721 15.2649C29.8826 15.7763 29.7015 16.2237 29.4288 16.6072C29.1603 16.9908 28.8279 17.3061 28.4316 17.5533C28.0353 17.8004 27.6049 17.9751 27.1404 18.0774L27.1149 18.2053C27.6092 18.2266 28.0545 18.3672 28.4508 18.6271C28.8471 18.8828 29.1433 19.245 29.3393 19.7138C29.5353 20.1825 29.5801 20.7386 29.4735 21.3821C29.3585 22.0767 29.0836 22.6967 28.649 23.2422C28.2143 23.7834 27.6348 24.2116 26.9103 24.527C26.1902 24.8423 25.34 25 24.3599 25H18.7669ZM21.9181 22.7372H24.1745C24.9416 22.7372 25.5275 22.5881 25.9324 22.2898C26.3372 21.9915 26.5801 21.5973 26.661 21.1072C26.7164 20.745 26.6802 20.4254 26.5524 20.1484C26.4288 19.8714 26.2179 19.6541 25.9196 19.4964C25.6255 19.3388 25.2527 19.2599 24.801 19.2599H22.487L21.9181 22.7372ZM22.8066 17.3871H24.8585C25.2335 17.3871 25.5808 17.321 25.9004 17.1889C26.2243 17.0526 26.4906 16.8608 26.6994 16.6136C26.9125 16.3622 27.0467 16.0661 27.1021 15.7251C27.1788 15.2479 27.0723 14.8665 26.7825 14.581C26.497 14.2912 26.0495 14.1463 25.4402 14.1463H23.3436L22.8066 17.3871Z" fill="white"/>
<path d="M15.6076 15.7124L15.5077 15.7084L15.5035 15.8124H15.6076V15.7124ZM15.141 14.4787L15.0748 14.5536L15.0753 14.5541L15.141 14.4787ZM12.4755 14.2358L12.5103 14.3295L12.5114 14.3291L12.4755 14.2358ZM11.6765 14.7536L11.6023 14.6865L11.6022 14.6866L11.6765 14.7536ZM11.3121 15.5078L11.4103 15.5274L11.4108 15.524L11.3121 15.5078ZM11.3569 16.1214L11.2653 16.1617L11.2662 16.1635L11.3569 16.1214ZM11.734 16.5753L11.674 16.6553L11.6763 16.6569L11.734 16.5753ZM12.354 16.9013L12.3175 16.9944L12.3189 16.9949L12.354 16.9013ZM13.1147 17.1314L13.139 17.0344L13.1379 17.0341L13.1147 17.1314ZM14.2397 17.4126L14.2154 17.5097L14.2171 17.51L14.2397 17.4126ZM15.7227 17.924L15.679 18.014L15.6793 18.0141L15.7227 17.924ZM16.8349 18.7102L16.7627 18.7794L16.7632 18.7799L16.8349 18.7102ZM17.4741 19.8097L17.3781 19.8378L17.3781 19.8378L17.4741 19.8097ZM17.5252 21.2607L17.6238 21.2774L17.6239 21.2768L17.5252 21.2607ZM16.5728 23.3445L16.6488 23.4094L16.6491 23.4091L16.5728 23.3445ZM14.6104 24.706L14.6472 24.799L14.6476 24.7988L14.6104 24.706ZM9.11967 24.6996L9.16029 24.6082L9.16029 24.6082L9.11967 24.6996ZM7.52805 23.2614L7.43909 23.307L7.43946 23.3077L7.52805 23.2614ZM7.23402 20.8899V20.7899H7.14707L7.13499 20.876L7.23402 20.8899ZM9.91229 20.8899L10.0117 20.9005L10.0235 20.7899H9.91229V20.8899ZM10.104 21.9893L10.0181 22.0404L10.019 22.0419L10.104 21.9893ZM10.9031 22.6477L10.8642 22.7399L10.8651 22.7403L10.9031 22.6477ZM13.4087 22.6605L13.3742 22.5667L13.3739 22.5668L13.4087 22.6605ZM14.31 22.0916L14.3826 22.1604L14.3826 22.1604L14.31 22.0916ZM14.7319 21.2543L14.6334 21.2371L14.6332 21.2383L14.7319 21.2543ZM13.9201 20.0014L13.8774 20.0919L13.8789 20.0925L13.9201 20.0014ZM12.7759 19.6179L12.7506 19.7147L12.7523 19.7151L12.7759 19.6179ZM11.408 19.2599L11.4333 19.1632L11.4326 19.163L11.408 19.2599ZM9.01101 18.0007L8.93843 18.0695L8.93843 18.0695L9.01101 18.0007ZM8.42933 15.6932L8.33077 15.6762L8.33057 15.6775L8.42933 15.6932ZM9.4201 13.6158L9.34524 13.5495L9.34521 13.5495L9.4201 13.6158ZM11.4144 12.2287L11.4523 12.3212L11.4526 12.3211L11.4144 12.2287ZM16.5153 12.2351L16.4703 12.3244L16.4708 12.3246L16.5153 12.2351ZM17.979 13.6286L18.068 13.5828L18.068 13.5828L17.979 13.6286ZM18.2603 15.7124V15.8124H18.3464L18.3592 15.7272L18.2603 15.7124ZM15.7075 15.7164C15.7298 15.1604 15.5667 14.7172 15.2067 14.4033L15.0753 14.5541C15.38 14.8197 15.5281 15.199 15.5077 15.7084L15.7075 15.7164ZM15.2072 14.4037C14.8533 14.0913 14.3286 13.944 13.6516 13.944V14.144C14.3042 14.144 14.7724 14.2866 15.0748 14.5536L15.2072 14.4037ZM13.6516 13.944C13.1908 13.944 12.7861 14.0092 12.4396 14.1425L12.5114 14.3291C12.8297 14.2067 13.209 14.144 13.6516 14.144V13.944ZM12.4406 14.1421C12.096 14.2702 11.8152 14.4509 11.6023 14.6865L11.7507 14.8206C11.9383 14.613 12.1902 14.4485 12.5103 14.3295L12.4406 14.1421ZM11.6022 14.6866C11.3935 14.918 11.2635 15.187 11.2135 15.4916L11.4108 15.524C11.4546 15.2576 11.5674 15.0238 11.7507 14.8205L11.6022 14.6866ZM11.2141 15.4882C11.1642 15.7376 11.1785 15.9639 11.2653 16.1616L11.4485 16.0812C11.3819 15.9296 11.3663 15.7468 11.4102 15.5274L11.2141 15.4882ZM11.2662 16.1635C11.3548 16.3548 11.4918 16.5186 11.674 16.6553L11.794 16.4953C11.6354 16.3763 11.5209 16.2376 11.4476 16.0794L11.2662 16.1635ZM11.6763 16.6569C11.8587 16.786 12.0728 16.8982 12.3175 16.9944L12.3906 16.8082C12.158 16.7168 11.9588 16.6118 11.7918 16.4936L11.6763 16.6569ZM12.3189 16.9949C12.5618 17.086 12.8193 17.1639 13.0915 17.2287L13.1379 17.0341C12.8731 16.9711 12.6236 16.8956 12.3892 16.8076L12.3189 16.9949ZM13.0904 17.2284L14.2154 17.5097L14.264 17.3156L13.139 17.0344L13.0904 17.2284ZM14.2171 17.51C14.7606 17.6365 15.2477 17.8046 15.679 18.014L15.7663 17.834C15.3198 17.6173 14.8182 17.4445 14.2624 17.3152L14.2171 17.51ZM15.6793 18.0141C16.1132 18.2227 16.4738 18.4781 16.7627 18.7794L16.9071 18.641C16.5994 18.3202 16.2185 18.0514 15.766 17.8339L15.6793 18.0141ZM16.7632 18.7799C17.0542 19.0792 17.259 19.4313 17.3781 19.8378L17.57 19.7815C17.4419 19.3442 17.2206 18.9634 16.9066 18.6405L16.7632 18.7799ZM17.3781 19.8378C17.4965 20.2421 17.5142 20.7101 17.4265 21.2445L17.6239 21.2768C17.7152 20.7203 17.6988 20.221 17.57 19.7815L17.3781 19.8378ZM17.4266 21.2439C17.2931 22.0283 16.9829 22.7061 16.4965 23.2798L16.6491 23.4091C17.1599 22.8066 17.4846 22.0952 17.6238 21.2774L17.4266 21.2439ZM16.4968 23.2795C16.01 23.8494 15.37 24.2944 14.5733 24.6131L14.6476 24.7988C15.4702 24.4698 16.1384 24.0071 16.6488 23.4094L16.4968 23.2795ZM14.5737 24.613C13.7781 24.927 12.8534 25.0854 11.7979 25.0854V25.2854C12.8731 25.2854 13.8235 25.1241 14.6472 24.799L14.5737 24.613ZM11.7979 25.0854C10.7508 25.0854 9.87276 24.9248 9.16029 24.6082L9.07906 24.791C9.82398 25.122 10.7315 25.2854 11.7979 25.2854V25.0854ZM9.16029 24.6082C8.44975 24.2924 7.93739 23.8277 7.61665 23.215L7.43946 23.3077C7.78349 23.9649 8.33221 24.459 9.07906 24.791L9.16029 24.6082ZM7.61702 23.2157C7.30093 22.5999 7.2029 21.8317 7.33305 20.9038L7.13499 20.876C7.00094 21.8317 7.09893 22.6444 7.43909 23.307L7.61702 23.2157ZM7.23402 20.9899H9.91229V20.7899H7.23402V20.9899ZM9.81285 20.8793C9.76435 21.3334 9.82949 21.723 10.0181 22.0404L10.19 21.9383C10.0292 21.6676 9.96647 21.3242 10.0117 20.9005L9.81285 20.8793ZM10.019 22.0419C10.2102 22.3516 10.4939 22.5837 10.8642 22.7399L10.9419 22.5556C10.6048 22.4134 10.3558 22.2067 10.1891 21.9368L10.019 22.0419ZM10.8651 22.7403C11.2335 22.8911 11.6624 22.9651 12.1495 22.9651V22.7651C11.6821 22.7651 11.28 22.6941 10.941 22.5552L10.8651 22.7403ZM12.1495 22.9651C12.632 22.9651 13.0639 22.8955 13.4436 22.7542L13.3739 22.5668C13.0206 22.6982 12.613 22.7651 12.1495 22.7651V22.9651ZM13.4433 22.7544C13.8259 22.6136 14.1402 22.4163 14.3826 22.1604L14.2374 22.0228C14.0196 22.2527 13.7331 22.4347 13.3742 22.5667L13.4433 22.7544ZM14.3826 22.1604C14.6258 21.9037 14.7761 21.6064 14.8306 21.2703L14.6332 21.2383C14.5854 21.5328 14.4544 21.7938 14.2374 22.0228L14.3826 22.1604ZM14.8304 21.2714C14.885 20.9574 14.8386 20.6819 14.6795 20.4553L14.5158 20.5702C14.638 20.7443 14.681 20.9631 14.6334 21.2371L14.8304 21.2714ZM14.6795 20.4553C14.5253 20.2357 14.2825 20.0555 13.9613 19.9103L13.8789 20.0925C14.1798 20.2286 14.3888 20.3893 14.5158 20.5702L14.6795 20.4553ZM13.9628 19.911C13.648 19.7624 13.2598 19.6326 12.7995 19.5207L12.7523 19.7151C13.204 19.8248 13.5785 19.9507 13.8774 20.0918L13.9628 19.911ZM12.8012 19.5212L11.4333 19.1632L11.3827 19.3567L12.7506 19.7146L12.8012 19.5212ZM11.4326 19.163C10.3874 18.8975 9.60767 18.4849 9.08359 17.9319L8.93843 18.0695C9.49673 18.6586 10.3151 19.0855 11.3834 19.3569L11.4326 19.163ZM9.08359 17.9319C8.56896 17.3889 8.37824 16.6538 8.5281 15.7088L8.33057 15.6775C8.17361 16.6672 8.37067 17.4704 8.93843 18.0695L9.08359 17.9319ZM8.52788 15.7101C8.66115 14.9355 8.98338 14.2602 9.49499 13.682L9.34521 13.5495C8.80853 14.156 8.47024 14.8656 8.33078 15.6762L8.52788 15.7101ZM9.49496 13.6821C10.0124 13.0979 10.6641 12.6441 11.4523 12.3212L11.3765 12.1362C10.5625 12.4696 9.88465 12.9404 9.34524 13.5495L9.49496 13.6821ZM11.4526 12.3211C12.2448 11.9942 13.1116 11.8301 14.0543 11.8301V11.6301C13.088 11.6301 12.1949 11.7984 11.3763 12.1363L11.4526 12.3211ZM14.0543 11.8301C15.0148 11.8301 15.8187 11.9966 16.4703 12.3244L16.5602 12.1458C15.8737 11.8003 15.0371 11.6301 14.0543 11.6301V11.8301ZM16.4708 12.3246C17.123 12.6487 17.5942 13.0988 17.8901 13.6743L18.068 13.5828C17.7503 12.9651 17.2456 12.4863 16.5598 12.1455L16.4708 12.3246ZM17.8901 13.6743C18.1856 14.2488 18.2782 14.9215 18.1614 15.6975L18.3592 15.7272C18.481 14.918 18.3861 14.2015 18.068 13.5828L17.8901 13.6743ZM18.2603 15.6124H15.6076V15.8124H18.2603V15.6124ZM18.7669 25L18.6682 24.9836L18.6489 25.1H18.7669V25ZM20.9402 11.9091V11.8091H20.8554L20.8415 11.8927L20.9402 11.9091ZM28.5211 12.3374L28.478 12.4276L28.4782 12.4277L28.5211 12.3374ZM29.7804 13.5263L29.6899 13.5689L29.69 13.5692L29.7804 13.5263ZM29.9721 15.2649L30.0706 15.2822L30.0707 15.2816L29.9721 15.2649ZM29.4288 16.6072L29.3473 16.5493L29.3469 16.5499L29.4288 16.6072ZM27.1404 18.0774L27.1189 17.9798L27.0552 17.9938L27.0424 18.0578L27.1404 18.0774ZM27.1149 18.2053L27.0168 18.1856L26.9939 18.3001L27.1106 18.3052L27.1149 18.2053ZM28.4508 18.6271L28.396 18.7108L28.3966 18.7112L28.4508 18.6271ZM29.3393 19.7138L29.2471 19.7524L29.2471 19.7524L29.3393 19.7138ZM29.4735 21.3821L29.5722 21.3984L29.5722 21.3984L29.4735 21.3821ZM28.649 23.2422L28.7269 23.3048L28.7272 23.3045L28.649 23.2422ZM26.9103 24.527L26.8704 24.4353L26.8702 24.4354L26.9103 24.527ZM21.9181 22.7372L21.8195 22.7211L21.8005 22.8372H21.9181V22.7372ZM25.9324 22.2898L25.9917 22.3703L25.9917 22.3703L25.9324 22.2898ZM26.661 21.1072L26.7597 21.1235L26.7599 21.1224L26.661 21.1072ZM26.5524 20.1484L26.461 20.1892L26.4616 20.1903L26.5524 20.1484ZM25.9196 19.4964L25.8723 19.5846L25.8728 19.5849L25.9196 19.4964ZM22.487 19.2599V19.1599H22.4021L22.3884 19.2438L22.487 19.2599ZM22.8066 17.3871L22.708 17.3707L22.6887 17.4871H22.8066V17.3871ZM25.9004 17.1889L25.9386 17.2813L25.9392 17.2811L25.9004 17.1889ZM26.6994 16.6136L26.6231 16.549L26.623 16.5491L26.6994 16.6136ZM27.1021 15.7251L27.2008 15.7412L27.2008 15.741L27.1021 15.7251ZM26.7825 14.581L26.7113 14.6512L26.7123 14.6522L26.7825 14.581ZM23.3436 14.1463V14.0463H23.2588L23.2449 14.13L23.3436 14.1463ZM18.8655 25.0164L21.0388 11.9255L20.8415 11.8927L18.6682 24.9836L18.8655 25.0164ZM20.9402 12.0091H26.1816V11.8091H20.9402V12.0091ZM26.1816 12.0091C27.1361 12.0091 27.8996 12.1508 28.478 12.4276L28.5643 12.2472C27.9495 11.9529 27.1534 11.8091 26.1816 11.8091V12.0091ZM28.4782 12.4277C29.0622 12.7052 29.4629 13.0864 29.6899 13.5689L29.8708 13.4837C29.6206 12.9519 29.1817 12.5405 28.564 12.247L28.4782 12.4277ZM29.69 13.5692C29.9183 14.0501 29.9816 14.6082 29.8735 15.2483L30.0707 15.2816C30.1843 14.6091 30.1197 14.0082 29.8707 13.4834L29.69 13.5692ZM29.8736 15.2477C29.7864 15.7459 29.6105 16.1791 29.3473 16.5493L29.5103 16.6652C29.7925 16.2683 29.9788 15.8067 30.0706 15.2822L29.8736 15.2477ZM29.3469 16.5499C29.0861 16.9224 28.7636 17.2284 28.3787 17.4684L28.4846 17.6381C28.8923 17.3838 29.2346 17.0591 29.5107 16.6646L29.3469 16.5499ZM28.3787 17.4684C27.9923 17.7094 27.5725 17.8799 27.1189 17.9798L27.162 18.1751C27.6374 18.0704 28.0784 17.8914 28.4846 17.6381L28.3787 17.4684ZM27.0424 18.0578L27.0168 18.1856L27.2129 18.2249L27.2385 18.097L27.0424 18.0578ZM27.1106 18.3052C27.5877 18.3257 28.0154 18.4611 28.396 18.7107L28.5057 18.5435C28.0936 18.2732 27.6307 18.1274 27.1192 18.1053L27.1106 18.3052ZM28.3966 18.7112C28.7746 18.955 29.0582 19.3007 29.2471 19.7524L29.4316 19.6752C29.2284 19.1893 28.9196 18.8106 28.505 18.5431L28.3966 18.7112ZM29.2471 19.7524C29.434 20.1995 29.4792 20.7357 29.3749 21.3658L29.5722 21.3984C29.6809 20.7416 29.6366 20.1656 29.4316 19.6752L29.2471 19.7524ZM29.3749 21.3658C29.2626 22.0437 28.9947 22.6479 28.5708 23.1799L28.7272 23.3045C29.1726 22.7456 29.4544 22.1097 29.5722 21.3984L29.3749 21.3658ZM28.571 23.1796C28.1478 23.7065 27.5821 24.1255 26.8704 24.4353L26.9502 24.6187C27.6875 24.2978 28.2808 23.8603 28.7269 23.3048L28.571 23.1796ZM26.8702 24.4354C26.1654 24.744 25.3295 24.9 24.3599 24.9V25.1C25.3505 25.1 26.2149 24.9407 26.9504 24.6186L26.8702 24.4354ZM24.3599 24.9H18.7669V25.1H24.3599V24.9ZM21.9181 22.8372H24.1745V22.6372H21.9181V22.8372ZM24.1745 22.8372C24.9524 22.8372 25.5627 22.6863 25.9917 22.3703L25.873 22.2093C25.4923 22.4898 24.9308 22.6372 24.1745 22.6372V22.8372ZM25.9917 22.3703C26.4172 22.0567 26.6744 21.6397 26.7597 21.1235L26.5624 21.0909C26.4857 21.5549 26.2572 21.9262 25.873 22.2093L25.9917 22.3703ZM26.7599 21.1224C26.8177 20.7447 26.7808 20.4046 26.6432 20.1065L26.4616 20.1903C26.5797 20.4462 26.6152 20.7453 26.5622 21.0921L26.7599 21.1224ZM26.6437 20.1077C26.51 19.808 26.282 19.5749 25.9663 19.408L25.8728 19.5849C26.1537 19.7333 26.3476 19.9349 26.4611 20.1892L26.6437 20.1077ZM25.9668 19.4083C25.654 19.2406 25.2636 19.1599 24.801 19.1599V19.3599C25.2418 19.3599 25.597 19.437 25.8723 19.5846L25.9668 19.4083ZM24.801 19.1599H22.487V19.3599H24.801V19.1599ZM22.3884 19.2438L21.8195 22.7211L22.0168 22.7534L22.5857 19.2761L22.3884 19.2438ZM22.8066 17.4871H24.8585V17.2871H22.8066V17.4871ZM24.8585 17.4871C25.2455 17.4871 25.6059 17.4189 25.9386 17.2813L25.8622 17.0965C25.5557 17.2232 25.2215 17.2871 24.8585 17.2871V17.4871ZM25.9392 17.2811C26.2763 17.1391 26.5559 16.9384 26.7758 16.6782L26.623 16.5491C26.4252 16.7832 26.1722 16.966 25.8616 17.0968L25.9392 17.2811ZM26.7757 16.6783C27.0011 16.4123 27.1426 16.0991 27.2008 15.7412L27.0034 15.7091C26.9508 16.033 26.8238 16.3121 26.6231 16.549L26.7757 16.6783ZM27.2008 15.741C27.2816 15.2386 27.17 14.8224 26.8527 14.5097L26.7123 14.6522C26.9745 14.9105 27.076 15.2571 27.0034 15.7093L27.2008 15.741ZM26.8537 14.5108C26.5418 14.1942 26.0631 14.0463 25.4402 14.0463V14.2463C26.036 14.2463 26.4521 14.3882 26.7113 14.6512L26.8537 14.5108ZM25.4402 14.0463H23.3436V14.2463H25.4402V14.0463ZM23.2449 14.13L22.708 17.3707L22.9053 17.4034L23.4422 14.1627L23.2449 14.13Z" fill="#454545"/>
</svg>
