<svg width="113" height="113" viewBox="0 0 113 113" fill="none" xmlns="http://www.w3.org/2000/svg">
<path d="M56.2008 0C25.1498 0 0 25.1498 0 56.2008C0 87.2517 25.1498 112.402 56.2008 112.402C87.2517 112.402 112.402 87.2517 112.402 56.2008C112.402 25.1498 87.2517 0 56.2008 0ZM56.2008 14.0502C60.8373 14.0502 65.1929 15.3147 69.408 16.7197C66.4574 19.5298 63.0854 22.0588 63.6474 24.5878C64.2094 27.1169 73.342 26.4144 73.342 31.6129C73.342 35.4065 67.4409 36.5305 71.5155 40.8861C76.433 45.8036 62.5233 54.6552 62.2423 61.1183C61.8208 72.78 74.0445 74.747 83.7391 74.747C89.6402 74.747 91.1857 77.5571 90.7642 80.9291C83.1771 91.7478 70.251 98.4919 56.0603 98.4919C50.7212 98.4919 45.8036 97.2273 41.1671 95.4008C44.2581 89.2187 37.233 76.995 30.6294 73.061C27.3979 69.8295 20.5133 71.094 16.5792 69.5484C15.3147 65.7549 14.0502 61.9613 13.9097 57.7463C14.3312 57.0438 15.0337 56.4818 16.1577 56.4818C18.8273 56.4818 22.4803 61.8208 24.4473 61.2588C26.9764 60.6968 14.0502 42.8531 20.0918 39.3405C22.9018 37.6545 28.5219 44.8201 26.6954 37.0925C25.0093 29.9269 31.7534 33.1585 35.9685 31.3319C39.6215 29.7864 42.2911 25.5713 37.795 23.0423C36.952 22.6208 35.9685 21.6373 34.704 20.3728C41.0266 16.5792 48.3327 14.1907 56.2008 14.1907V14.0502ZM88.6567 29.3649C91.1857 32.4559 93.1528 35.828 94.8388 39.481V39.9025C94.2768 40.8861 93.2933 41.4481 91.7478 42.9936C87.8137 46.9276 87.2517 40.043 85.5657 38.638C83.7391 36.952 77.1356 38.919 76.2925 36.8115C75.309 34.2825 83.3176 30.9104 88.6567 29.3649Z" fill="black"/>
</svg>
