<svg width="110" height="143" viewBox="0 0 110 143" fill="none" xmlns="http://www.w3.org/2000/svg">
<path d="M82.5 0C67.375 0 55 8.04375 55 17.875C55 27.7063 67.375 35.75 82.5 35.75C97.625 35.75 110 27.7063 110 17.875C110 8.04375 97.625 0 82.5 0ZM41.25 44.6875C18.425 44.6875 0 56.6637 0 71.5H27.5C27.5 66.495 33.55 62.5625 41.25 62.5625C48.95 62.5625 55 66.495 55 71.5C55 76.505 27.5 100.815 27.5 116.188C27.5 131.56 45.925 143 68.75 143C91.575 143 110 131.024 110 116.188H82.5C82.5 121.192 76.45 125.125 68.75 125.125C61.05 125.125 55 121.192 55 116.188C55 109.753 82.5 83.2975 82.5 71.5C82.5 57.0213 64.075 44.6875 41.25 44.6875Z" fill="black"/>
</svg>
