<svg width="360" height="430" viewBox="0 0 360 430" fill="none" xmlns="http://www.w3.org/2000/svg">
<path d="M182.177 207.238L358.824 97.2445L182.177 1V207.238Z" fill="black"/>
<path d="M1 97.2445L182.177 207.238V1L1 97.2445Z" fill="#5C5C5C"/>
<path d="M358.824 97.2445L182.177 207.238V429.19L337.814 318.434C350.996 309.054 358.824 293.875 358.824 277.696V97.2445Z" fill="#AAAAAA"/>
<path d="M182.177 207.238L1 97.2445V277.318C1 293.707 9.03177 309.056 22.497 318.398L182.177 429.19V207.238Z" fill="#2B2B2B"/>
<path d="M1 97.2445L182.177 207.238M1 97.2445L182.177 1M1 97.2445V277.318C1 293.707 9.03177 309.056 22.497 318.398L182.177 429.19M182.177 207.238L358.824 97.2445M182.177 207.238V429.19M182.177 207.238V1M358.824 97.2445L182.177 1M358.824 97.2445V277.696C358.824 293.875 350.996 309.054 337.814 318.434L182.177 429.19" stroke="black"/>
<path d="M85.0107 316.281C78.9747 314.66 74.3112 312.03 71.0204 308.393C67.7295 304.756 65.5332 300.467 64.4314 295.525C63.3449 290.502 63.0502 285.088 63.547 279.286L75.7397 282.561C75.3665 285.902 75.3786 289.218 75.7758 292.507C76.2535 295.819 77.4022 298.709 79.2217 301.176C81.0413 303.644 83.8424 305.385 87.6249 306.402C92.1318 307.612 96.03 307.111 99.3194 304.897C102.624 302.602 104.699 299.202 105.544 294.697C106.236 291.012 106.04 287.776 104.956 284.99C103.969 282.143 102.381 279.566 100.193 277.258C98.0057 274.949 95.546 272.74 92.8141 270.63C90.1626 268.541 87.4786 266.4 84.7621 264.208C82.0609 261.934 79.6473 259.479 77.5212 256.843C75.395 254.207 73.8363 251.25 72.845 247.973C71.9341 244.717 71.8859 240.919 72.7002 236.578C73.6222 231.663 75.5804 227.759 78.575 224.864C81.5697 221.969 85.1752 220.098 89.3916 219.252C93.6886 218.428 98.0905 218.621 102.597 219.832C110.806 222.037 116.404 225.993 119.392 231.699C122.459 237.427 123.618 244.32 122.867 252.377L111.157 249.231C111.393 244.821 110.716 240.768 109.127 237.072C107.538 233.376 104.369 230.89 99.6209 229.614C95.3555 228.468 91.8235 228.595 89.025 229.994C86.2264 231.393 84.397 234.386 83.5365 238.972C82.968 242.003 83.2562 244.747 84.4012 247.206C85.5462 249.664 87.1876 251.955 89.3254 254.078C91.5437 256.222 94.0188 258.35 96.7508 260.46C99.5785 262.51 102.335 264.713 105.021 267.069C107.722 269.344 110.08 271.87 112.095 274.648C114.191 277.448 115.703 280.65 116.633 284.255C117.578 287.778 117.621 291.833 116.76 296.42C115.178 304.856 111.559 310.852 105.904 314.409C100.345 317.906 93.3806 318.53 85.0107 316.281Z" fill="white"/>
<path d="M262.97 324.757L233.225 240.238L272.317 220.537C280.471 216.428 287.552 215.134 293.56 216.655C299.645 218.138 303.877 222.26 306.256 229.021C307.984 233.931 308.148 238.73 306.747 243.416C305.422 248.064 302.704 252.324 298.594 256.196L298.807 256.8C304.622 255.48 309.692 255.863 314.015 257.949C318.338 260.035 321.406 263.654 323.219 268.806C324.748 273.152 325.027 277.514 324.055 281.889C323.159 286.226 321.079 290.26 317.816 293.989C314.629 297.68 310.483 300.812 305.377 303.385L262.97 324.757ZM292.488 288.557C296.374 286.599 299.13 283.978 300.756 280.695C302.354 277.331 302.557 273.958 301.368 270.578C300.149 267.116 297.953 264.954 294.778 264.09C291.679 263.188 288.224 263.696 284.414 265.617L266.811 274.488L274.885 297.429L292.488 288.557ZM281.964 264.008C285.851 262.05 288.607 259.429 290.232 256.145C291.83 252.782 292.034 249.409 290.844 246.029C289.626 242.567 287.467 240.386 284.368 239.483C281.27 238.581 277.777 239.109 273.891 241.068L257.888 249.132L265.961 272.073L281.964 264.008Z" fill="white"/>
</svg>
