<svg xmlns:mydata="http://www.w3.org/2000/svg" xmlns="http://www.w3.org/2000/svg" xmlns:xlink="http://www.w3.org/1999/xlink" mydata:contrastcolor="11111f" mydata:template="Contrast" mydata:presentation="2.5" mydata:layouttype="undefined" mydata:specialfontid="undefined" mydata:id1="302" mydata:id2="013" mydata:companyname="SHARE BOX" mydata:companytagline="" version="1.1" viewBox="0 45 550 380"><g fill="#babbb1" fill-rule="none" stroke="none" stroke-width="1" stroke-linecap="butt" stroke-linejoin="miter" stroke-miterlimit="10" stroke-dasharray="" stroke-dashoffset="0" font-family="none" font-weight="none" font-size="none" text-anchor="none" style="mix-blend-mode: normal"><g data-paper-data="{&quot;isGlobalGroup&quot;:true,&quot;bounds&quot;:{&quot;x&quot;:77.89108910891096,&quot;y&quot;:174.55515579359763,&quot;width&quot;:394.21782178217813,&quot;height&quot;:120.88968841280479}}"><g data-paper-data="{&quot;isSecondaryText&quot;:true}" fill-rule="nonzero"><path d="M202.70274,274.41565v8.37982h3.82349c1.3807,0 2.42154,-0.4089 3.12252,-1.2267c0.70097,-0.8178 1.05146,-1.85333 1.05146,-3.10659c0,-1.42319 -0.42483,-2.45341 -1.2745,-3.09065c-0.84966,-0.63725 -1.95423,-0.95587 -3.31369,-0.95587zM202.70274,284.67535v8.53913h3.88722c0.72221,0 1.40195,-0.09028 2.0392,-0.27083c0.63725,-0.18055 1.19484,-0.44607 1.67278,-0.79656c0.47794,-0.35049 0.85498,-0.79125 1.13112,-1.32229c0.27614,-0.53104 0.41421,-1.14705 0.41421,-1.84802c0,-0.7647 -0.15931,-1.42319 -0.47794,-1.97547c-0.31862,-0.55228 -0.74877,-0.99836 -1.29043,-1.33822c-0.54166,-0.33987 -1.15767,-0.58945 -1.84802,-0.74877c-0.69035,-0.15931 -1.39664,-0.23897 -2.11885,-0.23897zM200.53609,295.18994v-22.74977h5.32102c1.06208,0 2.02326,0.10621 2.88355,0.31862c0.86029,0.21242 1.59843,0.55228 2.21444,1.0196c0.61601,0.46732 1.08863,1.0727 1.41788,1.81616c0.32925,0.74346 0.49387,1.64623 0.49387,2.70831c0,0.61601 -0.06372,1.20546 -0.19117,1.76836c-0.12745,0.5629 -0.32925,1.08332 -0.60539,1.56126c-0.27614,0.47794 -0.63725,0.89215 -1.08332,1.24263c-0.44607,0.35049 -0.99836,0.62132 -1.65685,0.81249c0.59477,0.12745 1.1736,0.32925 1.7365,0.60539c0.5629,0.27614 1.06208,0.63725 1.49753,1.08332c0.43545,0.44607 0.78594,0.98242 1.05146,1.60905c0.26552,0.62663 0.39828,1.35415 0.39828,2.18258c0,1.0196 -0.2018,1.91175 -0.60539,2.67644c-0.40359,0.7647 -0.93994,1.39133 -1.60905,1.87988c-0.66911,0.48856 -1.43912,0.85498 -2.31003,1.09925c-0.87091,0.24428 -1.77367,0.36642 -2.70831,0.36642z" data-paper-data="{&quot;glyphName&quot;:&quot;B&quot;,&quot;glyphIndex&quot;:0,&quot;firstGlyphOfWord&quot;:true,&quot;word&quot;:1}"/><path d="M261.8881,283.84692c0,-1.59312 0.30269,-3.09597 0.90808,-4.50853c0.60539,-1.41257 1.43381,-2.64989 2.48527,-3.71197c1.05146,-1.06208 2.28347,-1.90112 3.69604,-2.51713c1.41257,-0.61601 2.91541,-0.92401 4.50853,-0.92401c1.59312,0 3.10128,0.308 4.52446,0.92401c1.42319,0.61601 2.66051,1.45505 3.71197,2.51713c1.05146,1.06208 1.88519,2.2994 2.5012,3.71197c0.61601,1.41257 0.92401,2.91541 0.92401,4.50853c0,1.59312 -0.308,3.09597 -0.92401,4.50853c-0.61601,1.41257 -1.44974,2.64458 -2.5012,3.69604c-1.05146,1.05146 -2.28878,1.87988 -3.71197,2.48527c-1.42319,0.60539 -2.93134,0.90808 -4.52446,0.90808c-1.59312,0 -3.09597,-0.30269 -4.50853,-0.90808c-1.41257,-0.60539 -2.64458,-1.43381 -3.69604,-2.48527c-1.05146,-1.05146 -1.87988,-2.28347 -2.48527,-3.69604c-0.60539,-1.41257 -0.90808,-2.91541 -0.90808,-4.50853zM264.05474,283.84692c0,1.31698 0.24959,2.5543 0.74877,3.71197c0.49918,1.15767 1.1736,2.16664 2.02326,3.02693c0.84966,0.86029 1.84802,1.54002 2.99507,2.0392c1.14705,0.49918 2.36844,0.74877 3.66418,0.74877c1.29574,0 2.52244,-0.24959 3.68011,-0.74877c1.15767,-0.49918 2.16664,-1.17891 3.02693,-2.0392c0.86029,-0.86029 1.54002,-1.86926 2.0392,-3.02693c0.49918,-1.15767 0.74877,-2.39499 0.74877,-3.71197c0,-1.31698 -0.24959,-2.5543 -0.74877,-3.71197c-0.49918,-1.15767 -1.17891,-2.17196 -2.0392,-3.04286c-0.86029,-0.87091 -1.86926,-1.55595 -3.02693,-2.05513c-1.15767,-0.49918 -2.38437,-0.74877 -3.68011,-0.74877c-1.31698,0 -2.54368,0.24959 -3.68011,0.74877c-1.13643,0.49918 -2.13478,1.18422 -2.99507,2.05513c-0.86029,0.87091 -1.53471,1.88519 -2.02326,3.04286c-0.48856,1.15767 -0.73284,2.39499 -0.73284,3.71197z" data-paper-data="{&quot;glyphName&quot;:&quot;O&quot;,&quot;glyphIndex&quot;:1,&quot;word&quot;:1}"/><path d="M339.10862,283.5283c-0.23366,-0.36111 -0.54166,-0.83373 -0.92401,-1.41788c-0.38235,-0.58414 -0.79656,-1.23201 -1.24263,-1.94361c-0.44607,-0.71159 -0.9187,-1.44443 -1.41788,-2.19851c-0.49918,-0.75408 -0.9718,-1.4816 -1.41788,-2.18258c-0.44607,-0.70097 -0.86029,-1.34353 -1.24263,-1.92768c-0.38235,-0.58414 -0.69035,-1.05677 -0.92401,-1.41788h2.67644c0.31862,0.5098 0.72753,1.15767 1.2267,1.94361c0.49918,0.78594 1.0196,1.60374 1.56126,2.45341c0.54166,0.84966 1.06208,1.67278 1.56126,2.46934c0.49918,0.79656 0.9187,1.44974 1.25857,1.95954l0.38235,0.7647l0.38235,-0.7647c0.31862,-0.5098 0.72221,-1.16298 1.21077,-1.95954c0.48856,-0.79656 0.99836,-1.61967 1.5294,-2.46934c0.53104,-0.84966 1.04084,-1.66747 1.5294,-2.45341c0.48856,-0.78594 0.89215,-1.43381 1.21077,-1.94361h2.58086l-7.10532,11.18371c0.2549,0.38235 0.57883,0.88153 0.9718,1.49753c0.39297,0.61601 0.82842,1.29043 1.30636,2.02326c0.47794,0.73284 0.9718,1.49222 1.4816,2.27816c0.5098,0.78594 1.00367,1.54533 1.4816,2.27816c0.47794,0.73284 0.91339,1.40195 1.30636,2.00733c0.39297,0.60539 0.7169,1.09925 0.9718,1.4816h-2.70831l-5.19357,-8.15678c-0.14869,-0.21242 -0.33456,-0.51511 -0.55759,-0.90808c-0.22304,-0.39297 -0.41952,-0.70628 -0.58945,-0.93994c-0.06372,0.14869 -0.13276,0.29738 -0.20711,0.44607c-0.07435,0.14869 -0.13276,0.24428 -0.17524,0.28676l-5.73524,9.27196h-2.67644c0.2549,-0.38235 0.57883,-0.88153 0.9718,-1.49753c0.39297,-0.61601 0.82842,-1.29574 1.30636,-2.0392c0.47794,-0.74346 0.9718,-1.50815 1.4816,-2.29409c0.5098,-0.78594 0.99836,-1.55064 1.46567,-2.29409c0.46732,-0.74346 0.90277,-1.42319 1.30636,-2.0392c0.40359,-0.61601 0.72221,-1.11518 0.95587,-1.49753z" data-paper-data="{&quot;glyphName&quot;:&quot;X&quot;,&quot;glyphIndex&quot;:2,&quot;lastGlyphOfWord&quot;:true,&quot;word&quot;:1}"/></g><g data-paper-data="{&quot;isPrimaryText&quot;:true}"><path d="M107.44349,233.10236c-11.15185,0 -18.95814,-7.2487 -18.95814,-7.2487l-10.59426,16.72777c0,0 10.03666,13.38222 34.57073,13.38222c19.51573,0 31.78277,-12.26703 31.78277,-25.09166c0,-24.53407 -30.10999,-24.53407 -30.10999,-30.10999c0,-1.67278 1.67278,-3.34555 4.46074,-3.34555c7.80629,0 14.4974,6.13352 14.4974,6.13352l10.59426,-16.72777c0,0 -10.03666,-12.26703 -30.10999,-12.26703c-19.51573,0 -31.78277,12.26703 -31.78277,25.09166c0,24.53407 30.10999,24.53407 30.10999,30.10999c0,1.67278 -1.67278,3.34555 -4.46074,3.34555z" data-paper-data="{&quot;glyphName&quot;:&quot;S&quot;,&quot;glyphIndex&quot;:0,&quot;firstGlyphOfWord&quot;:true,&quot;word&quot;:1}" fill-rule="nonzero"/><path d="M182.16087,176.22793h-28.9948v78.06294h28.9948v-26.76443h17.84296v26.76443h28.9948v-78.06294h-28.9948v26.76443h-17.84296z" data-paper-data="{&quot;glyphName&quot;:&quot;H&quot;,&quot;glyphIndex&quot;:1,&quot;word&quot;:1}" fill-rule="nonzero"/><path d="M405.19782,254.29087l-18.95814,-30.10999c0,0 10.03666,-5.57592 10.03666,-21.7461c0,-16.17018 -11.15185,-27.32203 -35.68591,-27.32203c-16.72777,0 -32.34036,1.11518 -32.34036,1.11518v78.06294h28.9948v-25.64925h1.11518l13.38222,25.64925zM357.24488,208.56829v-12.26703h3.34555c3.90315,0 6.69111,2.78796 6.69111,6.13352c0,3.34555 -2.78796,6.13352 -6.69111,6.13352z" data-paper-data="{&quot;glyphName&quot;:&quot;R&quot;,&quot;glyphIndex&quot;:3,&quot;word&quot;:1}" fill-rule="nonzero"/><path d="M438.65337,226.41125h28.9948v-22.3037h-28.9948v-5.57592h31.22517v-22.3037h-60.21998v78.06294h62.45035v-22.3037h-33.45554z" data-paper-data="{&quot;glyphName&quot;:&quot;E&quot;,&quot;glyphIndex&quot;:4,&quot;lastGlyphOfWord&quot;:true,&quot;word&quot;:1}" fill-rule="nonzero"/><g data-paper-data="{&quot;isIcon&quot;:&quot;true&quot;,&quot;iconType&quot;:&quot;icon&quot;,&quot;rawIconId&quot;:&quot;5871f8f5-3f01-418a-87f6-dc45259766e4&quot;,&quot;isSvgStockIcon&quot;:true,&quot;selectedEffects&quot;:{&quot;container&quot;:&quot;&quot;,&quot;transformation&quot;:&quot;&quot;,&quot;pattern&quot;:&quot;&quot;},&quot;combineTerms&quot;:&quot;box&quot;,&quot;combineTermsExtended&quot;:{&quot;icon&quot;:[&quot;box&quot;]},&quot;isDetailed&quot;:false,&quot;fillRule&quot;:&quot;evenodd&quot;,&quot;bounds&quot;:{&quot;x&quot;:236.8746824766687,&quot;y&quot;:176.22803249681402,&quot;width&quot;:83.49984017486761,&quot;height&quot;:78.06293500637193},&quot;iconStyle&quot;:&quot;icon-in-text&quot;,&quot;suitableAsStandaloneIcon&quot;:true}" fill-rule="evenodd"><path d="M297.10842,176.22803h-36.96882c-0.05265,0 -0.10465,0.00423 -0.156,0.01268c-0.052,0.00845 -0.1027,0.0208 -0.1521,0.03705c-0.0494,0.0169 -0.0975,0.03738 -0.1443,0.06143c-0.04615,0.02405 -0.09035,0.052 -0.1326,0.08385c-0.0416,0.0312 -0.0806,0.06565 -0.117,0.10335c-0.0364,0.0377 -0.06955,0.078 -0.09945,0.1209c-0.0299,0.0429 -0.0559,0.08808 -0.078,0.13553c-0.02275,0.04745 -0.0416,0.0962 -0.05655,0.14625l-22.28991,76.1129c-0.026,0.0897 -0.039,0.18103 -0.039,0.27398c0,0.0637 0.00618,0.12708 0.01853,0.19013c0.01235,0.06305 0.03088,0.12415 0.05558,0.1833c0.0247,0.05915 0.05493,0.11538 0.09068,0.16868c0.0351,0.05265 0.0754,0.10173 0.1209,0.14723c0.0455,0.0455 0.09458,0.0858 0.14723,0.1209c0.0533,0.03575 0.10953,0.06598 0.16868,0.09068c0.05915,0.0247 0.12025,0.04323 0.1833,0.05558c0.0624,0.01235 0.12578,0.01853 0.19013,0.01853h81.5496c0.09295,0 0.18428,-0.013 0.27398,-0.039c0.12415,-0.0364 0.2366,-0.09523 0.33736,-0.17648c0.10075,-0.08125 0.182,-0.17843 0.24375,-0.29153c0.0624,-0.11375 0.10043,-0.23498 0.11408,-0.36368c0.0143,-0.12805 0.00325,-0.25415 -0.03315,-0.37831l-11.15227,-38.05499l-11.13862,-38.05791c-0.01495,-0.05005 -0.0338,-0.0988 -0.05655,-0.14625c-0.0221,-0.04745 -0.0481,-0.09263 -0.078,-0.13553c-0.0299,-0.0429 -0.06305,-0.0832 -0.09945,-0.1209c-0.0364,-0.0377 -0.0754,-0.07215 -0.117,-0.10335c-0.04225,-0.03185 -0.08645,-0.0598 -0.1326,-0.08385c-0.0468,-0.02405 -0.0949,-0.04453 -0.1443,-0.06143c-0.0494,-0.01625 -0.1001,-0.0286 -0.1521,-0.03705c-0.05135,-0.00845 -0.10335,-0.01268 -0.156,-0.01268zM260.8699,178.17807l-21.71855,74.16286h78.9463l-10.78566,-36.80696l-10.93386,-37.3559z"/><path d="M256.16922,204.36215v-0.00496c0.00124,-0.19391 0.14779,-0.36018 0.42244,-0.43537l15.18167,-4.15487c0.45786,-0.12531 1.14909,-0.00221 1.53566,0.27321l4.29524,3.06202c0.38657,0.27587 0.77669,0.5079 0.86658,0.51676c0.09033,0.00841 0.41447,-0.28207 0.71956,-0.64517l3.10054,-3.68682c0.30598,-0.3631 0.93078,-0.56015 1.38953,-0.43749l16.31791,4.359c0.45831,0.12266 0.58982,0.52517 0.29225,0.89492l-4.28372,5.31635c-0.29801,0.3693 -0.90599,0.53801 -1.35189,0.37461l-14.90536,-5.47311c-0.44546,-0.1634 -0.81565,0.09078 -0.82274,0.56546l-0.17757,11.83005c-0.00708,0.47469 -0.09166,0.86303 -0.18864,0.86303c-0.09697,0 -0.18642,-0.38834 -0.19926,-0.86303l-0.32015,-11.8305c-0.0124,-0.47425 -0.38746,-0.72753 -0.83248,-0.56281l-14.76809,5.46912c-0.44502,0.16472 -1.08222,0.02347 -1.41566,-0.31439l-4.65923,-4.71502c-0.13189,-0.13328 -0.19579,-0.27299 -0.1966,-0.40101zM280.63657,218.15367c-0.41048,-0.20369 -0.40738,-0.5296 0.00753,-0.72532l13.53398,-6.37909c0.41491,-0.19528 1.09905,-0.21033 1.52193,-0.03277l3.97597,1.66983c0.42244,0.17757 0.45211,0.52428 0.06554,0.77049l-11.80703,7.51976c-0.38657,0.2462 -1.03838,0.28074 -1.44887,0.07749zM263.02876,211.3114c-0.41004,-0.19041 -1.01713,-0.0952 -1.34924,0.21122l-4.32181,3.98527c-0.33211,0.30598 -0.27764,0.73063 0.12089,0.94362l11.96201,6.37333c0.39897,0.21255 1.01314,0.15498 1.36562,-0.12797l5.49835,-4.41878c0.35203,-0.28295 0.30465,-0.66997 -0.10495,-0.85993zM279.98432,242.06396c-0.42997,0.20103 -0.782,-0.02303 -0.782,-0.49727l-0.00531,-22.01065c0,-0.47469 0.34008,-0.67528 0.75543,-0.44591l6.07754,3.35693c0.41535,0.23026 1.08267,0.209 1.48341,-0.04605l7.17703,-4.57022c0.4003,-0.25461 0.72842,-0.07528 0.72842,0.39941v15.73562c0,0.47469 -0.35203,1.02731 -0.782,1.22879zM276.97677,242.10249c0.42908,0.20281 0.78023,-0.01948 0.78023,-0.49417v-21.99648c0,-0.47469 -0.29934,-0.61595 -0.66554,-0.31351l-5.73968,4.7438c-0.36576,0.30288 -1.0065,0.36532 -1.42451,0.13993l-7.53615,-4.06985c-0.41757,-0.22583 -0.75942,-0.02214 -0.75942,0.45211v13.42195c0,0.47469 0.35115,1.02909 0.78023,1.23189z" data-paper-data="{&quot;isPathIcon&quot;:true}"/></g></g></g></g><g class="watermark-group" style="opacity:0.040000010281801224"/></svg>