<svg width="173" height="63" viewBox="0 0 173 63" fill="none" xmlns="http://www.w3.org/2000/svg">
<path d="M25.2334 1.61086C26.3475 0.678605 27.9696 0.678605 29.0837 1.61086L51.4984 20.3661C52.4047 21.1244 52.7814 22.3441 52.4605 23.4815L43.7385 54.3964C43.3738 55.6891 42.1944 56.5819 40.8512 56.5819H13.4659C12.1227 56.5819 10.9433 55.6891 10.5786 54.3964L1.85657 23.4815C1.5357 22.3441 1.91238 21.1244 2.81869 20.3661L25.2334 1.61086Z" fill="black"/>
<path d="M25.5542 1.99433C26.4827 1.21745 27.8344 1.21745 28.7629 1.99433L51.1776 20.7495C51.9328 21.3815 52.2467 22.3979 51.9793 23.3457L43.2573 54.2607C42.9534 55.3379 41.9705 56.0819 40.8512 56.0819H13.4659C12.3466 56.0819 11.3637 55.3379 11.0598 54.2607L2.33778 23.3457C2.07039 22.3979 2.3843 21.3815 3.13955 20.7495L25.5542 1.99433Z" stroke="#454545" stroke-opacity="0.95"/>
<path d="M51.2996 10.4154C51.2996 11.6027 51.0536 12.4804 50.5614 13.0486C50.0692 13.6168 49.3113 13.9009 48.2876 13.9009C47.2606 13.9009 46.499 13.6168 46.0027 13.0486C45.5064 12.4804 45.2604 11.6027 45.2645 10.4154C45.2645 9.24177 45.5105 8.37084 46.0027 7.80263C46.4949 7.23442 47.2565 6.95032 48.2876 6.95032C49.3031 6.95032 50.0586 7.23442 50.554 7.80263C51.0495 8.37084 51.298 9.24177 51.2996 10.4154ZM50.9576 10.4154C50.9576 9.36793 50.7382 8.58869 50.2993 8.07766C49.8605 7.56663 49.1899 7.31112 48.2876 7.31112C47.3746 7.31112 46.6987 7.56663 46.2599 8.07766C45.821 8.58869 45.6012 9.36793 45.6004 10.4154C45.6004 11.4756 45.8202 12.2616 46.2599 12.7736C46.6995 13.2855 47.3754 13.541 48.2876 13.5401C49.1899 13.5401 49.86 13.2846 50.2981 12.7736C50.7361 12.2625 50.9559 11.4765 50.9576 10.4154ZM47.4841 10.8892V12.3093H47.1421V8.48748H48.2876C48.7666 8.48748 49.1087 8.57825 49.3137 8.75978C49.5188 8.94132 49.6213 9.24131 49.6213 9.65975C49.6363 9.94567 49.5644 10.2289 49.4171 10.4644C49.256 10.6753 49.0305 10.8133 48.7834 10.8524L49.7075 12.3106H49.2793L48.4106 10.8892H47.4841ZM49.2805 9.66384C49.2886 9.54755 49.2712 9.43081 49.2296 9.32363C49.188 9.21645 49.1236 9.12202 49.0418 9.04843C48.8778 8.91591 48.6268 8.84965 48.2888 8.84965H47.4841V10.5733H48.2876C48.6296 10.5733 48.8806 10.4998 49.0406 10.3555C49.2005 10.2112 49.2805 9.97427 49.2805 9.65839V9.66384Z" fill="white"/>
<path d="M24.4626 28.3512C24.4839 27.8185 24.3283 27.4073 23.996 27.1175C23.6678 26.8278 23.1714 26.6829 22.5066 26.6829C22.0549 26.6829 21.6629 26.7468 21.3305 26.8747C20.9981 26.9982 20.7318 27.1708 20.5315 27.3924C20.3354 27.6097 20.214 27.8612 20.1671 28.1467C20.1202 28.381 20.1352 28.5856 20.2119 28.7603C20.2928 28.935 20.4185 29.0863 20.589 29.2141C20.7637 29.3377 20.9704 29.4464 21.209 29.5401C21.4477 29.6296 21.7012 29.7063 21.9697 29.7702L23.0947 30.0515C23.6444 30.1793 24.1387 30.3498 24.5776 30.5629C25.0208 30.7759 25.3916 31.038 25.6898 31.3491C25.9924 31.6602 26.2055 32.0266 26.3291 32.4485C26.4526 32.8704 26.4697 33.3541 26.3802 33.8995C26.2438 34.7006 25.9264 35.3952 25.4278 35.9833C24.9292 36.5671 24.2751 37.021 23.4654 37.3448C22.6558 37.6644 21.7183 37.8242 20.6529 37.8242C19.5961 37.8242 18.7033 37.6623 17.9746 37.3384C17.246 37.0146 16.7154 36.5352 16.383 35.9002C16.0549 35.261 15.9569 34.4705 16.089 33.5288H18.7673C18.7204 33.9677 18.7843 34.3342 18.959 34.6282C19.138 34.918 19.4043 35.1374 19.758 35.2866C20.1117 35.4315 20.5272 35.5039 21.0045 35.5039C21.4775 35.5039 21.8972 35.4357 22.2637 35.2994C22.6344 35.163 22.9349 34.9734 23.165 34.7305C23.3951 34.4876 23.5357 34.2085 23.5869 33.8931C23.638 33.5991 23.5933 33.3519 23.4526 33.1516C23.312 32.9514 23.0862 32.7809 22.7751 32.6403C22.4683 32.4954 22.0869 32.3675 21.6309 32.2568L20.263 31.8988C19.2062 31.6303 18.4072 31.2106 17.866 30.6396C17.3248 30.0685 17.1309 29.2994 17.2843 28.332C17.4207 27.5394 17.7509 26.847 18.2751 26.2546C18.8035 25.658 19.4683 25.1957 20.2694 24.8675C21.0748 24.5352 21.9548 24.369 22.9093 24.369C23.8809 24.369 24.7012 24.5373 25.3702 24.8739C26.0393 25.2063 26.5272 25.6708 26.834 26.2674C27.1408 26.864 27.2346 27.5586 27.1153 28.3512H24.4626ZM27.6218 37.6389L29.7951 24.5479H35.0366C35.9997 24.5479 36.7795 24.6907 37.3761 24.9762C37.977 25.2617 38.3967 25.658 38.6353 26.1651C38.874 26.668 38.9379 27.2475 38.8271 27.9038C38.7376 28.4151 38.5565 28.8626 38.2838 29.2461C38.0153 29.6296 37.6829 29.945 37.2866 30.1921C36.8903 30.4393 36.4599 30.614 35.9954 30.7163L35.9699 30.8441C36.4642 30.8654 36.9095 31.006 37.3058 31.266C37.7021 31.5217 37.9983 31.8839 38.1943 32.3526C38.3903 32.8214 38.4351 33.3775 38.3285 34.021C38.2135 34.7156 37.9386 35.3356 37.5039 35.881C37.0693 36.4222 36.4897 36.8505 35.7653 37.1658C35.0451 37.4812 34.195 37.6389 33.2149 37.6389H27.6218ZM30.7731 35.3761H33.0295C33.7966 35.3761 34.3825 35.2269 34.7873 34.9286C35.1922 34.6303 35.4351 34.2362 35.516 33.7461C35.5714 33.3839 35.5352 33.0643 35.4074 32.7873C35.2838 32.5103 35.0728 32.293 34.7745 32.1353C34.4805 31.9776 34.1076 31.8988 33.6559 31.8988H31.342L30.7731 35.3761ZM31.6616 30.0259H33.7135C34.0885 30.0259 34.4358 29.9599 34.7554 29.8278C35.0792 29.6914 35.3456 29.4997 35.5544 29.2525C35.7674 29.0011 35.9017 28.7049 35.9571 28.364C36.0338 27.8867 35.9272 27.5053 35.6375 27.2198C35.352 26.93 34.9045 26.7852 34.2951 26.7852H32.1985L31.6616 30.0259Z" fill="white"/>
<path d="M24.4626 28.3512L24.3627 28.3472L24.3585 28.4512H24.4626V28.3512ZM23.996 27.1175L23.9298 27.1925L23.9302 27.1929L23.996 27.1175ZM21.3305 26.8747L21.3653 26.9684L21.3664 26.968L21.3305 26.8747ZM20.5315 27.3924L20.4573 27.3254L20.4572 27.3254L20.5315 27.3924ZM20.1671 28.1467L20.2652 28.1663L20.2658 28.1629L20.1671 28.1467ZM20.2119 28.7603L20.1203 28.8005L20.1211 28.8024L20.2119 28.7603ZM20.589 29.2141L20.529 29.2942L20.5312 29.2958L20.589 29.2141ZM21.209 29.5401L21.1725 29.6332L21.1739 29.6338L21.209 29.5401ZM21.9697 29.7702L21.9939 29.6732L21.9928 29.673L21.9697 29.7702ZM23.0947 30.0515L23.0704 30.1485L23.072 30.1489L23.0947 30.0515ZM24.5776 30.5629L24.534 30.6528L24.5343 30.653L24.5776 30.5629ZM25.6898 31.3491L25.6177 31.4183L25.6182 31.4188L25.6898 31.3491ZM26.3291 32.4485L26.2331 32.4766L26.3291 32.4485ZM26.3802 33.8995L26.4788 33.9163L26.4789 33.9157L26.3802 33.8995ZM25.4278 35.9833L25.5038 36.0483L25.504 36.048L25.4278 35.9833ZM23.4654 37.3448L23.5021 37.4378L23.5026 37.4377L23.4654 37.3448ZM17.9746 37.3384L18.0153 37.247L17.9746 37.3384ZM16.383 35.9002L16.2941 35.9459L16.2944 35.9466L16.383 35.9002ZM16.089 33.5288V33.4288H16.002L15.99 33.5149L16.089 33.5288ZM18.7673 33.5288L18.8667 33.5394L18.8785 33.4288H18.7673V33.5288ZM18.959 34.6282L18.873 34.6793L18.8739 34.6807L18.959 34.6282ZM19.758 35.2866L19.7192 35.3787L19.7201 35.3791L19.758 35.2866ZM22.2637 35.2994L22.2292 35.2055L22.2288 35.2056L22.2637 35.2994ZM23.165 34.7305L23.2376 34.7992H23.2376L23.165 34.7305ZM23.5869 33.8931L23.4883 33.876L23.4882 33.8771L23.5869 33.8931ZM22.7751 32.6403L22.7324 32.7307L22.7339 32.7314L22.7751 32.6403ZM21.6309 32.2568L21.6056 32.3535L21.6073 32.3539L21.6309 32.2568ZM20.263 31.8988L20.2883 31.8021L20.2876 31.8019L20.263 31.8988ZM17.866 30.6396L17.7934 30.7084L17.866 30.6396ZM17.2843 28.332L17.1857 28.3151L17.1855 28.3164L17.2843 28.332ZM18.2751 26.2546L18.2002 26.1883L18.2002 26.1884L18.2751 26.2546ZM20.2694 24.8675L20.3073 24.9601L20.3075 24.96L20.2694 24.8675ZM25.3702 24.8739L25.3253 24.9633L25.3258 24.9635L25.3702 24.8739ZM26.834 26.2674L26.923 26.2217L26.834 26.2674ZM27.1153 28.3512V28.4512H27.2013L27.2142 28.3661L27.1153 28.3512ZM24.5625 28.3552C24.5847 27.7993 24.4217 27.356 24.0617 27.0422L23.9302 27.1929C24.235 27.4586 24.383 27.8378 24.3627 28.3472L24.5625 28.3552ZM24.0622 27.0426C23.7083 26.7301 23.1836 26.5829 22.5066 26.5829V26.7829C23.1592 26.7829 23.6274 26.9254 23.9298 27.1925L24.0622 27.0426ZM22.5066 26.5829C22.0458 26.5829 21.641 26.6481 21.2946 26.7813L21.3664 26.968C21.6847 26.8456 22.064 26.7829 22.5066 26.7829V26.5829ZM21.2956 26.7809C20.951 26.9091 20.6702 27.0898 20.4573 27.3254L20.6057 27.4595C20.7933 27.2518 21.0452 27.0874 21.3653 26.9684L21.2956 26.7809ZM20.4572 27.3254C20.2485 27.5568 20.1185 27.8258 20.0684 28.1305L20.2658 28.1629C20.3095 27.8965 20.4224 27.6627 20.6057 27.4594L20.4572 27.3254ZM20.0691 28.1271C20.0192 28.3764 20.0335 28.6027 20.1203 28.8005L20.3034 28.7201C20.2369 28.5685 20.2213 28.3856 20.2652 28.1663L20.0691 28.1271ZM20.1211 28.8024C20.2098 28.9936 20.3468 29.1575 20.529 29.2941L20.649 29.1341C20.4903 29.0151 20.3759 28.8764 20.3026 28.7183L20.1211 28.8024ZM20.5312 29.2958C20.7137 29.4248 20.9278 29.5371 21.1725 29.6332L21.2456 29.4471C21.013 29.3557 20.8137 29.2506 20.6467 29.1325L20.5312 29.2958ZM21.1739 29.6338C21.4168 29.7248 21.6743 29.8027 21.9465 29.8675L21.9928 29.673C21.7281 29.6099 21.4786 29.5344 21.2441 29.4465L21.1739 29.6338ZM21.9454 29.8673L23.0704 30.1485L23.1189 29.9545L21.9939 29.6732L21.9454 29.8673ZM23.072 30.1489C23.6156 30.2753 24.1027 30.4435 24.534 30.6528L24.6213 30.4729C24.1747 30.2561 23.6732 30.0834 23.1173 29.9541L23.072 30.1489ZM24.5343 30.653C24.9682 30.8616 25.3287 31.117 25.6177 31.4183L25.762 31.2799C25.4544 30.959 25.0734 30.6903 24.621 30.4727L24.5343 30.653ZM25.6182 31.4188C25.9092 31.718 26.114 32.0702 26.2331 32.4766L26.425 32.4204C26.2969 31.9831 26.0756 31.6023 25.7615 31.2794L25.6182 31.4188ZM26.2331 32.4766C26.3515 32.8809 26.3692 33.3489 26.2815 33.8833L26.4789 33.9157C26.5702 33.3592 26.5538 32.8599 26.425 32.4204L26.2331 32.4766ZM26.2816 33.8827C26.1481 34.6672 25.8378 35.345 25.3515 35.9186L25.504 36.048C26.0149 35.4455 26.3396 34.7341 26.4788 33.9163L26.2816 33.8827ZM25.3517 35.9184C24.865 36.4883 24.225 36.9333 23.4283 37.252L23.5026 37.4377C24.3252 37.1086 24.9934 36.646 25.5038 36.0483L25.3517 35.9184ZM23.4287 37.2518C22.633 37.5659 21.7084 37.7242 20.6529 37.7242V37.9242C21.7281 37.9242 22.6785 37.763 23.5021 37.4378L23.4287 37.2518ZM20.6529 37.7242C19.6058 37.7242 18.7277 37.5637 18.0153 37.247L17.934 37.4298C18.679 37.7609 19.5864 37.9242 20.6529 37.9242V37.7242ZM18.0153 37.247C17.3047 36.9313 16.7924 36.4665 16.4716 35.8538L16.2944 35.9466C16.6385 36.6038 17.1872 37.0979 17.934 37.4298L18.0153 37.247ZM16.472 35.8546C16.1559 35.2388 16.0579 34.4705 16.188 33.5427L15.99 33.5149C15.8559 34.4705 15.9539 35.2832 16.2941 35.9459L16.472 35.8546ZM16.089 33.6288H18.7673V33.4288H16.089V33.6288ZM18.6678 33.5182C18.6193 33.9723 18.6845 34.3619 18.8731 34.6793L19.045 34.5771C18.8841 34.3064 18.8214 33.9631 18.8667 33.5394L18.6678 33.5182ZM18.8739 34.6807C19.0652 34.9904 19.3489 35.2226 19.7192 35.3787L19.7969 35.1944C19.4598 35.0523 19.2108 34.8455 19.0441 34.5757L18.8739 34.6807ZM19.7201 35.3791C20.0884 35.53 20.5173 35.6039 21.0045 35.6039V35.4039C20.5371 35.4039 20.135 35.3329 19.7959 35.194L19.7201 35.3791ZM21.0045 35.6039C21.487 35.6039 21.9189 35.5344 22.2986 35.3931L22.2288 35.2056C21.8756 35.3371 21.468 35.4039 21.0045 35.4039V35.6039ZM22.2982 35.3932C22.6808 35.2525 22.9951 35.0552 23.2376 34.7992L23.0924 34.6617C22.8746 34.8916 22.5881 35.0735 22.2292 35.2055L22.2982 35.3932ZM23.2376 34.7992C23.4808 34.5425 23.6311 34.2452 23.6856 33.9091L23.4882 33.8771C23.4404 34.1717 23.3094 34.4326 23.0924 34.6617L23.2376 34.7992ZM23.6854 33.9102C23.74 33.5962 23.6935 33.3207 23.5345 33.0942L23.3708 33.2091C23.493 33.3831 23.536 33.6019 23.4883 33.876L23.6854 33.9102ZM23.5345 33.0942C23.3803 32.8746 23.1375 32.6944 22.8163 32.5492L22.7339 32.7314C23.0348 32.8674 23.2437 33.0282 23.3708 33.2091L23.5345 33.0942ZM22.8178 32.5499C22.503 32.4012 22.1148 32.2714 21.6545 32.1596L21.6073 32.3539C22.059 32.4637 22.4335 32.5896 22.7324 32.7307L22.8178 32.5499ZM21.6562 32.16L20.2883 31.8021L20.2377 31.9955L21.6056 32.3535L21.6562 32.16ZM20.2876 31.8019C19.2423 31.5363 18.4626 31.1237 17.9386 30.5708L17.7934 30.7084C18.3517 31.2974 19.17 31.7243 20.2384 31.9957L20.2876 31.8019ZM17.9386 30.5708C17.4239 30.0278 17.2332 29.2927 17.3831 28.3477L17.1855 28.3164C17.0286 29.3061 17.2256 30.1093 17.7934 30.7084L17.9386 30.5708ZM17.3829 28.349C17.5161 27.5744 17.8384 26.8991 18.35 26.3209L18.2002 26.1884C17.6635 26.7948 17.3252 27.5045 17.1858 28.3151L17.3829 28.349ZM18.3499 26.3209C18.8673 25.7368 19.5191 25.2829 20.3073 24.9601L20.2315 24.775C19.4174 25.1084 18.7396 25.5793 18.2002 26.1883L18.3499 26.3209ZM20.3075 24.96C21.0997 24.633 21.9666 24.469 22.9093 24.469V24.269C21.9429 24.269 21.0499 24.4373 20.2312 24.7751L20.3075 24.96ZM22.9093 24.469C23.8698 24.469 24.6737 24.6354 25.3253 24.9633L25.4152 24.7846C24.7287 24.4392 23.892 24.269 22.9093 24.269V24.469ZM25.3258 24.9635C25.978 25.2875 26.4491 25.7377 26.7451 26.3131L26.923 26.2217C26.6053 25.604 26.1006 25.1251 25.4147 24.7844L25.3258 24.9635ZM26.7451 26.3131C27.0406 26.8877 27.1332 27.5603 27.0164 28.3363L27.2142 28.3661C27.336 27.5569 27.2411 26.8403 26.923 26.2217L26.7451 26.3131ZM27.1153 28.2512H24.4626V28.4512H27.1153V28.2512ZM27.6218 37.6389L27.5232 37.6225L27.5039 37.7389H27.6218V37.6389ZM29.7951 24.5479V24.4479H29.7104L29.6965 24.5316L29.7951 24.5479ZM37.3761 24.9762L37.3329 25.0664L37.3332 25.0665L37.3761 24.9762ZM38.6353 26.1651L38.5449 26.2077L38.545 26.208L38.6353 26.1651ZM38.8271 27.9038L38.9256 27.921L38.9257 27.9204L38.8271 27.9038ZM38.2838 29.2461L38.2023 29.1881L38.2019 29.1888L38.2838 29.2461ZM35.9954 30.7163L35.9739 30.6186L35.9102 30.6326L35.8974 30.6967L35.9954 30.7163ZM35.9699 30.8441L35.8718 30.8245L35.8489 30.939L35.9655 30.944L35.9699 30.8441ZM37.3058 31.266L37.2509 31.3496L37.2516 31.35L37.3058 31.266ZM38.1943 32.3526L38.102 32.3912L38.1943 32.3526ZM38.3285 34.021L38.4272 34.0373V34.0373L38.3285 34.021ZM37.5039 35.881L37.5819 35.9437L37.5822 35.9434L37.5039 35.881ZM35.7653 37.1658L35.7254 37.0742L35.7252 37.0742L35.7653 37.1658ZM30.7731 35.3761L30.6744 35.3599L30.6554 35.4761H30.7731V35.3761ZM34.7873 34.9286L34.8466 35.0091L34.7873 34.9286ZM35.516 33.7461L35.6147 33.7624L35.6149 33.7612L35.516 33.7461ZM35.4074 32.7873L35.316 32.828L35.3166 32.8292L35.4074 32.7873ZM34.7745 32.1353L34.7273 32.2234L34.7278 32.2237L34.7745 32.1353ZM31.342 31.8988V31.7988H31.257L31.2433 31.8827L31.342 31.8988ZM31.6616 30.0259L31.563 30.0096L31.5437 30.1259H31.6616V30.0259ZM34.7554 29.8278L34.7936 29.9202L34.7942 29.9199L34.7554 29.8278ZM35.5544 29.2525L35.4781 29.1878L35.478 29.188L35.5544 29.2525ZM35.9571 28.364L36.0558 28.38L36.0558 28.3799L35.9571 28.364ZM35.6375 27.2198L35.5662 27.29L35.5673 27.2911L35.6375 27.2198ZM32.1985 26.7852V26.6852H32.1138L32.0999 26.7688L32.1985 26.7852ZM27.7205 37.6552L29.8938 24.5643L29.6965 24.5316L27.5232 37.6225L27.7205 37.6552ZM29.7951 24.6479H35.0366V24.4479H29.7951V24.6479ZM35.0366 24.6479C35.991 24.6479 36.7545 24.7896 37.3329 25.0664L37.4193 24.886C36.8045 24.5918 36.0083 24.4479 35.0366 24.4479V24.6479ZM37.3332 25.0665C37.9172 25.3441 38.3178 25.7253 38.5449 26.2077L38.7258 26.1226C38.4756 25.5908 38.0367 25.1794 37.419 24.8859L37.3332 25.0665ZM38.545 26.208C38.7732 26.6889 38.8366 27.247 38.7285 27.8871L38.9257 27.9204C39.0392 27.248 38.9747 26.647 38.7257 26.1223L38.545 26.208ZM38.7286 27.8865C38.6414 28.3848 38.4655 28.818 38.2023 29.1881L38.3653 29.3041C38.6475 28.9072 38.8338 28.4455 38.9256 27.921L38.7286 27.8865ZM38.2019 29.1888C37.9411 29.5613 37.6186 29.8673 37.2337 30.1073L37.3395 30.277C37.7473 30.0227 38.0895 29.698 38.3657 29.3034L38.2019 29.1888ZM37.2337 30.1073C36.8472 30.3483 36.4275 30.5187 35.9739 30.6186L36.0169 30.8139C36.4923 30.7093 36.9334 30.5303 37.3395 30.277L37.2337 30.1073ZM35.8974 30.6967L35.8718 30.8245L36.0679 30.8637L36.0935 30.7359L35.8974 30.6967ZM35.9655 30.944C36.4427 30.9646 36.8704 31.1 37.2509 31.3496L37.3606 31.1824C36.9486 30.9121 36.4857 30.7663 35.9742 30.7442L35.9655 30.944ZM37.2516 31.35C37.6296 31.5939 37.9132 31.9396 38.102 32.3912L38.2865 32.3141C38.0834 31.8282 37.7746 31.4495 37.36 31.182L37.2516 31.35ZM38.102 32.3912C38.289 32.8383 38.3342 33.3745 38.2299 34.0046L38.4272 34.0373C38.5359 33.3805 38.4916 32.8044 38.2865 32.3141L38.102 32.3912ZM38.2299 34.0046C38.1176 34.6826 37.8497 35.2867 37.4257 35.8187L37.5822 35.9434C38.0275 35.3844 38.3094 34.7486 38.4272 34.0373L38.2299 34.0046ZM37.426 35.8184C37.0028 36.3453 36.437 36.7644 35.7254 37.0742L35.8052 37.2575C36.5424 36.9366 37.1358 36.4991 37.5819 35.9437L37.426 35.8184ZM35.7252 37.0742C35.0204 37.3829 34.1845 37.5389 33.2149 37.5389V37.7389C34.2055 37.7389 35.0699 37.5795 35.8054 37.2574L35.7252 37.0742ZM33.2149 37.5389H27.6218V37.7389H33.2149V37.5389ZM30.7731 35.4761H33.0295V35.2761H30.7731V35.4761ZM33.0295 35.4761C33.8073 35.4761 34.4177 35.3252 34.8466 35.0091L34.728 34.8481C34.3473 35.1287 33.7858 35.2761 33.0295 35.2761V35.4761ZM34.8466 35.0091C35.2722 34.6956 35.5294 34.2785 35.6147 33.7624L35.4174 33.7298C35.3407 34.1938 35.1121 34.5651 34.728 34.8481L34.8466 35.0091ZM35.6149 33.7612C35.6726 33.3836 35.6357 33.0435 35.4981 32.7454L35.3166 32.8292C35.4347 33.0851 35.4702 33.3842 35.4172 33.731L35.6149 33.7612ZM35.4987 32.7465C35.365 32.4468 35.137 32.2138 34.8213 32.0469L34.7278 32.2237C35.0087 32.3722 35.2026 32.5738 35.316 32.828L35.4987 32.7465ZM34.8218 32.0472C34.509 31.8794 34.1186 31.7988 33.6559 31.7988V31.9988C34.0967 31.9988 34.452 32.0758 34.7273 32.2234L34.8218 32.0472ZM33.6559 31.7988H31.342V31.9988H33.6559V31.7988ZM31.2433 31.8827L30.6744 35.3599L30.8718 35.3922L31.4407 31.9149L31.2433 31.8827ZM31.6616 30.1259H33.7135V29.9259H31.6616V30.1259ZM33.7135 30.1259C34.1005 30.1259 34.4609 30.0577 34.7936 29.9202L34.7172 29.7354C34.4107 29.862 34.0765 29.9259 33.7135 29.9259V30.1259ZM34.7942 29.9199C35.1313 29.778 35.4109 29.5772 35.6308 29.317L35.478 29.188C35.2802 29.4221 35.0272 29.6048 34.7166 29.7356L34.7942 29.9199ZM35.6307 29.3171C35.8561 29.0512 35.9976 28.738 36.0558 28.38L35.8584 28.348C35.8057 28.6718 35.6788 28.951 35.4781 29.1878L35.6307 29.3171ZM36.0558 28.3799C36.1365 27.8775 36.025 27.4613 35.7077 27.1486L35.5673 27.2911C35.8295 27.5494 35.931 27.896 35.8583 28.3481L36.0558 28.3799ZM35.7087 27.1496C35.3968 26.8331 34.9181 26.6852 34.2951 26.6852V26.8852C34.8909 26.8852 35.3071 27.027 35.5662 27.29L35.7087 27.1496ZM34.2951 26.6852H32.1985V26.8852H34.2951V26.6852ZM32.0999 26.7688L31.563 30.0096L31.7603 30.0423L32.2972 26.8015L32.0999 26.7688Z" fill="#454545"/>
<path d="M84.0153 27.9116C83.9509 27.2639 83.6649 26.7487 83.1573 26.3661C82.6497 25.9836 82.0115 25.7923 81.2426 25.7923C80.7009 25.7923 80.2236 25.8851 79.8107 26.0707C79.4016 26.2563 79.0797 26.5139 78.8448 26.8434C78.6138 27.1692 78.4982 27.5404 78.4982 27.957C78.4982 28.2639 78.5645 28.5328 78.6971 28.7639C78.8297 28.9949 79.0077 29.1938 79.2312 29.3604C79.4585 29.5233 79.7085 29.6635 79.9812 29.7809C80.2577 29.8983 80.5361 29.9968 80.8164 30.0764L82.0437 30.4286C82.4149 30.5309 82.7861 30.6616 83.1573 30.8207C83.5285 30.9798 83.8676 31.1805 84.1744 31.4229C84.485 31.6616 84.7331 31.9551 84.9187 32.3036C85.1081 32.6483 85.2028 33.0631 85.2028 33.5479C85.2028 34.1692 85.0418 34.7279 84.7198 35.2241C84.3979 35.7203 83.9357 36.1142 83.3335 36.4059C82.7312 36.6938 82.0096 36.8377 81.1687 36.8377C80.377 36.8377 79.6895 36.707 79.1062 36.4457C78.5229 36.1805 78.0645 35.815 77.7312 35.3491C77.3979 34.8832 77.2104 34.3434 77.1687 33.7298H78.2596C78.2975 34.1881 78.449 34.5764 78.7141 34.8945C78.9793 35.2127 79.324 35.4551 79.7482 35.6218C80.1725 35.7847 80.646 35.8661 81.1687 35.8661C81.7482 35.8661 82.2634 35.7695 82.7141 35.5764C83.1687 35.3794 83.5247 35.1067 83.7823 34.7582C84.0437 34.4059 84.1744 33.9968 84.1744 33.5309C84.1744 33.137 84.0721 32.8074 83.8676 32.5423C83.663 32.2733 83.377 32.0479 83.0096 31.8661C82.646 31.6843 82.2236 31.5233 81.7426 31.3832L80.3505 30.9741C79.4376 30.7014 78.7293 30.3245 78.2255 29.8434C77.7217 29.3623 77.4698 28.7487 77.4698 28.0025C77.4698 27.3775 77.6365 26.8282 77.9698 26.3548C78.3069 25.8775 78.7615 25.5063 79.3335 25.2411C79.9092 24.9722 80.5551 24.8377 81.271 24.8377C81.9944 24.8377 82.6346 24.9703 83.1914 25.2354C83.7482 25.5006 84.1895 25.8661 84.5153 26.332C84.8448 26.7942 85.021 27.3207 85.0437 27.9116H84.0153ZM88.5607 31.1843V36.6389H87.5494V25.0025H88.5607V29.2809H88.6516C88.8562 28.8301 89.1725 28.4703 89.6005 28.2014C90.0323 27.9324 90.5778 27.7979 91.2369 27.7979C91.8278 27.7979 92.3467 27.9192 92.7937 28.1616C93.2407 28.404 93.5891 28.762 93.8391 29.2354C94.0891 29.7089 94.2141 30.2923 94.2141 30.9854V36.6389H93.1971V31.0479C93.1971 30.3282 92.9963 29.762 92.5948 29.3491C92.1971 28.9324 91.6592 28.7241 90.9812 28.7241C90.5153 28.7241 90.1005 28.8226 89.7369 29.0195C89.3732 29.2165 89.0854 29.5006 88.8732 29.8718C88.6649 30.2392 88.5607 30.6767 88.5607 31.1843ZM99.315 36.8377C98.7885 36.8377 98.3074 36.7354 97.8718 36.5309C97.4362 36.3226 97.0896 36.0233 96.832 35.6332C96.5745 35.2392 96.4457 34.762 96.4457 34.2014C96.4457 33.7695 96.5271 33.4059 96.69 33.1104C96.8529 32.815 97.0839 32.5726 97.3832 32.3832C97.6824 32.1938 98.0366 32.0442 98.4457 31.9343C98.8548 31.8245 99.3055 31.7392 99.7979 31.6786C100.287 31.618 100.699 31.565 101.037 31.5195C101.377 31.4741 101.637 31.4021 101.815 31.3036C101.993 31.2051 102.082 31.0461 102.082 30.8264V30.6218C102.082 30.0271 101.904 29.5593 101.548 29.2184C101.196 28.8737 100.688 28.7014 100.025 28.7014C99.3964 28.7014 98.8832 28.8396 98.4854 29.1161C98.0915 29.3926 97.815 29.7184 97.6559 30.0934L96.6957 29.7468C96.8926 29.2695 97.1654 28.8889 97.5139 28.6048C97.8623 28.3169 98.2525 28.1104 98.6843 27.9854C99.1161 27.8567 99.5536 27.7923 99.9968 27.7923C100.33 27.7923 100.677 27.8358 101.037 27.9229C101.4 28.0101 101.737 28.1616 102.048 28.3775C102.359 28.5896 102.61 28.887 102.804 29.2695C102.997 29.6483 103.093 30.1294 103.093 30.7127V36.6389H102.082V35.2582H102.02C101.898 35.5157 101.718 35.7657 101.48 36.0082C101.241 36.2506 100.942 36.4495 100.582 36.6048C100.222 36.7601 99.7998 36.8377 99.315 36.8377ZM99.4514 35.9116C99.9892 35.9116 100.455 35.7923 100.849 35.5536C101.243 35.315 101.546 34.9987 101.758 34.6048C101.974 34.207 102.082 33.7695 102.082 33.2923V32.0309C102.006 32.1029 101.879 32.1673 101.701 32.2241C101.527 32.2809 101.324 32.332 101.093 32.3775C100.866 32.4192 100.639 32.4551 100.412 32.4854C100.184 32.5157 99.9798 32.5423 99.7979 32.565C99.3055 32.6256 98.8851 32.7203 98.5366 32.8491C98.1881 32.9779 97.9211 33.1559 97.7354 33.3832C97.5498 33.6067 97.457 33.8945 97.457 34.2468C97.457 34.7771 97.6464 35.1881 98.0252 35.4798C98.404 35.7676 98.8794 35.9116 99.4514 35.9116ZM105.784 36.6389V27.9116H106.767V29.2525H106.841C107.015 28.8131 107.318 28.4589 107.75 28.19C108.185 27.9173 108.678 27.7809 109.227 27.7809C109.31 27.7809 109.403 27.7828 109.505 27.7866C109.608 27.7904 109.693 27.7942 109.761 27.7979V28.8264C109.716 28.8188 109.636 28.8074 109.522 28.7923C109.409 28.7771 109.286 28.7695 109.153 28.7695C108.699 28.7695 108.293 28.8661 107.937 29.0593C107.585 29.2487 107.306 29.512 107.102 29.8491C106.897 30.1862 106.795 30.5707 106.795 31.0025V36.6389H105.784ZM114.75 36.8207C113.935 36.8207 113.231 36.6313 112.636 36.2525C112.041 35.8699 111.581 35.3415 111.255 34.6673C110.933 33.9892 110.772 33.2089 110.772 32.3264C110.772 31.4476 110.933 30.6673 111.255 29.9854C111.581 29.2998 112.03 28.7639 112.602 28.3775C113.178 27.9873 113.842 27.7923 114.596 27.7923C115.07 27.7923 115.526 27.8794 115.966 28.0536C116.405 28.2241 116.799 28.4873 117.147 28.8434C117.5 29.1957 117.778 29.6407 117.983 30.1786C118.187 30.7127 118.289 31.3453 118.289 32.0764V32.5764H111.471V31.6843H117.255C117.255 31.1237 117.142 30.6199 116.914 30.1729C116.691 29.7222 116.378 29.3661 115.977 29.1048C115.579 28.8434 115.119 28.7127 114.596 28.7127C114.043 28.7127 113.556 28.8604 113.136 29.1559C112.716 29.4514 112.386 29.8415 112.147 30.3264C111.913 30.8112 111.793 31.3415 111.789 31.9173V32.4514C111.789 33.1445 111.909 33.7506 112.147 34.2695C112.39 34.7847 112.733 35.1843 113.176 35.4684C113.619 35.7525 114.144 35.8945 114.75 35.8945C115.163 35.8945 115.524 35.8301 115.835 35.7014C116.149 35.5726 116.413 35.4002 116.625 35.1843C116.841 34.9646 117.003 34.7241 117.113 34.4627L118.074 34.7752C117.941 35.1426 117.723 35.4817 117.42 35.7923C117.121 36.1029 116.746 36.3529 116.295 36.5423C115.848 36.7279 115.333 36.8207 114.75 36.8207ZM125.228 36.6389V25.0025H129.154C129.912 25.0025 130.543 25.1351 131.047 25.4002C131.554 25.6654 131.935 26.0271 132.189 26.4854C132.442 26.9438 132.569 27.4646 132.569 28.0479C132.569 28.5328 132.488 28.9476 132.325 29.2923C132.162 29.637 131.94 29.9154 131.66 30.1275C131.38 30.3396 131.067 30.493 130.723 30.5877V30.6786C131.098 30.7051 131.461 30.8377 131.814 31.0764C132.166 31.3112 132.456 31.6407 132.683 32.065C132.91 32.4892 133.024 32.9968 133.024 33.5877C133.024 34.1748 132.893 34.6995 132.632 35.1616C132.37 35.6199 131.969 35.9817 131.427 36.2468C130.889 36.5082 130.204 36.6389 129.37 36.6389H125.228ZM126.291 35.6843H129.37C130.268 35.6843 130.931 35.4854 131.359 35.0877C131.791 34.69 132.007 34.19 132.007 33.5877C132.007 33.1445 131.899 32.743 131.683 32.3832C131.471 32.0195 131.17 31.7317 130.779 31.5195C130.393 31.3074 129.939 31.2014 129.416 31.2014H126.291V35.6843ZM126.291 30.2582H129.251C129.709 30.2582 130.111 30.1635 130.456 29.9741C130.8 29.7847 131.069 29.5233 131.262 29.19C131.456 28.8567 131.552 28.476 131.552 28.0479C131.552 27.4305 131.351 26.9286 130.95 26.5423C130.548 26.1521 129.95 25.957 129.154 25.957H126.291V30.2582ZM138.77 36.8207C138.016 36.8207 137.349 36.6294 136.77 36.2468C136.194 35.8642 135.743 35.3358 135.417 34.6616C135.092 33.9836 134.929 33.2014 134.929 32.315C134.929 31.4211 135.092 30.6351 135.417 29.957C135.743 29.2752 136.194 28.7449 136.77 28.3661C137.349 27.9836 138.016 27.7923 138.77 27.7923C139.523 27.7923 140.188 27.9836 140.764 28.3661C141.34 28.7487 141.79 29.279 142.116 29.957C142.446 30.6351 142.61 31.4211 142.61 32.315C142.61 33.2014 142.448 33.9836 142.122 34.6616C141.796 35.3358 141.343 35.8642 140.764 36.2468C140.188 36.6294 139.523 36.8207 138.77 36.8207ZM138.77 35.8945C139.376 35.8945 139.889 35.7317 140.309 35.4059C140.73 35.0801 141.048 34.6464 141.264 34.1048C141.484 33.5631 141.593 32.9665 141.593 32.315C141.593 31.6635 141.484 31.065 141.264 30.5195C141.048 29.9741 140.73 29.5366 140.309 29.207C139.889 28.8775 139.376 28.7127 138.77 28.7127C138.167 28.7127 137.654 28.8775 137.23 29.207C136.809 29.5366 136.489 29.9741 136.27 30.5195C136.054 31.065 135.946 31.6635 135.946 32.315C135.946 32.9665 136.054 33.5631 136.27 34.1048C136.489 34.6464 136.809 35.0801 137.23 35.4059C137.65 35.7317 138.163 35.8945 138.77 35.8945ZM145.096 27.9116L147.346 31.6332L149.596 27.9116H150.772L147.966 32.2752L150.772 36.6389H149.596L147.346 33.0366L145.096 36.6389H143.926L146.699 32.2752L143.926 27.9116H145.096Z" fill="white"/>
</svg>
