<svg width="51" height="50" viewBox="0 0 51 50" fill="none" xmlns="http://www.w3.org/2000/svg">
<path d="M0 0.062422V50H49.9376V35.1436C50.0395 34.6915 50.0395 34.2224 49.9376 33.7703V0H0V0.062422ZM6.2422 6.30462H43.6954V31.2734H34.3321C34.1452 31.2565 33.9572 31.2565 33.7703 31.2734C32.9425 31.3479 32.1783 31.7482 31.6456 32.3862C31.113 33.0242 30.8556 33.8476 30.9301 34.6754C31.0046 35.5032 31.4049 36.2674 32.0429 36.8001C32.6809 37.3327 33.5043 37.5901 34.3321 37.5156H43.6954V43.7578H6.2422V6.30462ZM21.8477 12.5468C16.6667 12.5468 12.4844 16.7291 12.4844 21.9101C12.4844 28.1523 21.8477 37.5156 21.8477 37.5156C21.8477 37.5156 31.211 28.1523 31.211 21.9101C31.211 16.7291 27.0287 12.5468 21.8477 12.5468ZM21.8477 18.789C23.5955 18.789 24.9688 20.1623 24.9688 21.9101C24.9688 23.6579 23.5955 25.0312 21.8477 25.0312C20.0999 25.0312 18.7266 23.6579 18.7266 21.9101C18.7266 20.1623 20.0999 18.789 21.8477 18.789Z" fill="white"/>
</svg>
