<svg width="31" height="50" viewBox="0 0 31 50" fill="none" xmlns="http://www.w3.org/2000/svg">
<path d="M1.14422 0C0.481776 0 0 0.499376 0 1.18602V48.814C0 49.5006 0.481776 50 1.14422 50H29.027C29.6895 50 30.1712 49.5006 30.1712 48.814V1.18602C30.1712 0.499376 29.6895 0 29.027 0L1.14422 0ZM6.0222 6.2422H24.0888V37.4532H6.0222V6.2422ZM15.0555 40.5743C16.7417 40.5743 18.0666 41.9476 18.0666 43.6954C18.0666 45.4432 16.7417 46.8165 15.0555 46.8165C13.3693 46.8165 12.0444 45.4432 12.0444 43.6954C12.0444 41.9476 13.3693 40.5743 15.0555 40.5743Z" fill="white"/>
</svg>
