<svg width="94" height="121" viewBox="0 0 94 121" fill="none" xmlns="http://www.w3.org/2000/svg">
<path d="M37.7126 0V15.1061H23.6407C10.8822 15.1061 0.187625 23.7166 0.187625 33.9888V41.5418C0.187625 51.814 8.44311 60.2734 20.6387 62.8414L68.6707 72.8115C71.2974 73.4157 75.0499 77.1923 75.0499 79.4582V87.0112C75.0499 89.1261 72.986 90.7878 70.3593 90.7878H23.4531C21.2016 90.7878 19.513 90.1835 18.7625 89.8814V75.6816H0V90.7878C0 95.9239 3.75249 100.305 8.25549 102.571C12.5709 104.988 18.012 105.894 23.4531 105.894H37.5249V121H56.2874V105.894H70.3593C83.3054 105.894 93.8124 97.4345 93.8124 87.0112V79.4582C93.8124 69.186 85.5569 60.7266 73.3613 58.1586L25.3293 48.1885C22.7026 47.5843 18.9501 43.8077 18.9501 41.5418V33.9888C18.9501 31.8739 21.014 30.2122 23.6407 30.2122H70.5469C72.6108 30.2122 74.487 30.8165 75.2375 31.1186V45.3184H94V30.2122C94 25.0762 90.2475 20.6954 85.7445 18.4295C81.4291 16.0125 75.988 15.1061 70.5469 15.1061H56.475V0L37.7126 0Z" fill="black"/>
</svg>
