<svg width="113" height="113" viewBox="0 0 113 113" fill="none" xmlns="http://www.w3.org/2000/svg">
<path d="M77.2761 0C57.8868 0 42.1506 15.7362 42.1506 35.1255C42.1506 37.3735 42.1506 39.6215 42.5721 41.7291L0 84.3011V112.402H42.1506V84.3011H70.251V70.251L70.6725 69.8295C72.78 70.251 75.028 70.251 77.2761 70.251C96.6653 70.251 112.402 54.5147 112.402 35.1255C112.402 15.7362 96.6653 0 77.2761 0ZM84.3011 14.0502C92.0288 14.0502 98.3513 20.3728 98.3513 28.1004C98.3513 35.828 92.0288 42.1506 84.3011 42.1506C76.5735 42.1506 70.251 35.828 70.251 28.1004C70.251 20.3728 76.5735 14.0502 84.3011 14.0502Z" fill="black"/>
</svg>
