<svg width="113" height="113" viewBox="0 0 113 113" fill="none" xmlns="http://www.w3.org/2000/svg">
<path d="M77.2761 0C70.1105 0 63.9284 4.91757 60.1348 12.3642C66.4574 19.9513 70.251 30.3484 70.251 42.2911C70.251 46.3656 69.8295 50.0187 68.9864 53.6717C71.656 55.2173 74.3255 56.3413 77.2761 56.3413C88.9377 56.3413 98.3513 43.6961 98.3513 28.2409C98.3513 12.7857 88.9377 0.140502 77.2761 0.140502V0ZM35.1255 14.0502C23.4638 14.0502 14.0502 26.6954 14.0502 42.1506C14.0502 57.6058 23.4638 70.251 35.1255 70.251C46.7871 70.251 56.2008 57.6058 56.2008 42.1506C56.2008 26.6954 46.7871 14.0502 35.1255 14.0502ZM101.864 58.4488C95.8223 65.6144 87.5327 69.97 78.1191 70.251C81.9126 75.59 84.3011 82.0531 84.3011 89.0782V98.3513H112.402V75.028C112.402 67.7219 108.046 61.3993 101.864 58.3083V58.4488ZM10.5376 72.499C4.35556 75.59 0 81.9126 0 89.2187V112.542H70.251V89.2187C70.251 81.9126 65.8954 75.59 59.7133 72.499C53.3907 79.9456 44.8201 84.3012 35.1255 84.3012C25.4308 84.3012 16.8602 79.8051 10.5376 72.499Z" fill="black"/>
</svg>
